# xmcd
#
# Track frame offsets:
#	150
#	18775
#	37380
#	39045
#
# Disc length: 880 seconds
#
# Revision: 1
# Processed by: cddbd v1.5.1PL0 Copyright (c) Steve Scherf et al.
# Submitted via: EasyCDDAExtractor 7.0.6.1
#
DISCID=25036e04
DTITLE=Alabama - Dancin', Shaggin' on the Boulevard
DYEAR=1997
DGENRE=Country
TTITLE0=Dancin', Shaggin' on the Boulevard
TTITLE1=Dancin', Shaggin' on the Boulevard
TTITLE2=suggested hook for market research
TTITLE3=Dancin', Shaggin' on the Boulevard (dance mix)
EXTD=
EXTT0=
EXTT1=
EXTT2=
EXTT3=
PLAYORDER=
